<?xml version="1.0" encoding="UTF-8"?> <svg xmlns="http://www.w3.org/2000/svg" width="65" height="61" viewBox="0 0 65 61" fill="none"><g clip-path="url(#clip0)"><path d="M52.0311 33.941C58.2049 31.5949 62.4761 28.5058 64.4176 22.2494C66.359 16.0321 62.8644 10.1667 62.8644 10.1667L61.6995 10.5577C62.8644 12.5128 62.6703 16.1885 60.7288 18.9256C58.4767 22.093 55.8363 23.4224 49.313 24.5564C43.7216 25.534 40.6153 26.7071 36.9265 29.6397C32.8495 32.8853 32.4612 34.8795 32.4612 34.8795C32.4612 34.8795 32.0729 32.8462 27.9958 29.6397C24.3071 26.7071 21.2396 25.534 15.6093 24.5564C9.16369 23.4615 6.52331 22.093 4.27122 18.9256C2.32976 16.1885 2.13561 12.5128 3.30049 10.5577L2.13561 10.1667C2.13561 10.1667 -1.35901 15.993 0.582448 22.2494C2.5239 28.4667 6.75628 31.5949 12.9689 33.941C17.2013 35.5442 22.7151 36.5609 24.8118 40.9013C26.9086 45.2417 24.4235 50.2077 21.0066 51.2244C17.5896 52.241 14.095 51.459 11.2216 48.1353L1.94147 52.4365C1.94147 52.4365 6.60097 61 18.5603 61C30.5197 61 32.5 54.0006 32.5 54.0006C32.5 54.0006 34.4415 61 46.4397 61C58.4379 61 63.0585 52.4365 63.0585 52.4365L53.7784 48.1353C50.8662 51.459 47.4104 52.241 43.9934 51.2244C40.5765 50.2077 38.1302 45.2417 40.1882 40.9013C42.2461 36.5609 47.7987 35.5442 52.0311 33.941Z" fill="#EAC7A4"></path><path d="M32.5 20.3333C38.0756 20.3333 42.5956 15.7816 42.5956 10.1667C42.5956 4.55177 38.0756 0 32.5 0C26.9244 0 22.4044 4.55177 22.4044 10.1667C22.4044 15.7816 26.9244 20.3333 32.5 20.3333Z" fill="#EAC7A4"></path></g><defs><clipPath id="clip0"><rect width="65" height="61" fill="white"></rect></clipPath></defs></svg> 